{"title":"How I Met Your Mother S08E24 720p HDTV x264 esubs - ViVeKRaNa","uid":8473159,"size":178631593,"categoryP":"video","categoryS":"hd___tv_shows","magnet":"?xt=urn:btih:12b54eb731d719c873b03ae0c4bf8d446331163c&amp;dn=How+I+Met+Your+Mother+S08E24+720p+HDTV+x264+esubs+-+ViVeKRaNa&amp;tr=udp%3A%2F%2Ftracker.openbittorrent.com%3A80&amp;tr=udp%3A%2F%2Fopen.demonii.com%3A1337&amp;tr=udp%3A%2F%2Ftracker.coppersurfer.tk%3A6969&amp;tr=udp%3A%2F%2Fexodus.desync.com%3A6969","seeders":4,"leechers":0,"uploader":"ViVeKRaNa","files":8,"time":1368539744,"description":"[img]http://www.filmofilia.com/wp-content/uploads/2012/09/HIMYM.jpg[/img]\n\n\nFormat                                   : MPEG-4\nFormat profile                           : Base Media / Version 2\nCodec ID                                 : mp42\nFile size                                : 170 MiB\nDuration                                 : 21mn 38s\nOverall bit rate mode                    : Variable\nOverall bit rate                         : 1 100 Kbps\nEncoded date                             : UTC 2013-05-14 11:15:21\nTagged date                              : UTC 2013-05-14 11:33:30\n\n\nVideo\nID                                       : 1\nFormat                                   : AVC\nFormat/Info                              : Advanced Video Codec\nFormat profile                           : &lt;a class=&quot;__cf_email__&quot; href=&quot;/cdn-cgi/l/email-protection&quot; data-cfemail=&quot;d19cb0b8bf919de2ffe0&quot;&gt;[email&amp;#160;protected]&lt;/a&gt;&lt;script data-cfhash='f9e31' type=&quot;text/javascript&quot;&gt;\n/* &lt;![CDATA[ */!function(){try{var t=&quot;currentScript&quot;in document?document.currentScript:function(){for(var t=document.getElementsByTagName(&quot;script&quot;),e=t.length;e--;)if(t[e].getAttribute(&quot;data-cfhash&quot;))return t[e]}();if(t&amp;&amp;t.previousSibling){var e,r,n,i,c=t.previousSibling,a=c.getAttribute(&quot;data-cfemail&quot;);if(a){for(e=&quot;&quot;,r=parseInt(a.substr(0,2),16),n=2;a.length-n;n+=2)i=parseInt(a.substr(n,2),16)^r,e+=String.fromCharCode(i);e=document.createTextNode(e),c.parentNode.replaceChild(e,c)}t.parentNode.removeChild(t);}}catch(u){}}()/* ]]&gt; */&lt;/script&gt;\nFormat settings, CABAC                   : Yes\nFormat settings, ReFrames                : 4 frames\nCodec ID                                 : avc1\nCodec ID/Info                            : Advanced Video Coding\nDuration                                 : 21mn 38s\nBit rate mode                            : Variable\nBit rate                                 : 1 000 Kbps\nWidth                                    : 1 280 pixels\nHeight                                   : 716 pixels\nDisplay aspect ratio                     : 16:9\nFrame rate mode                          : Variable\nFrame rate                               : 24.000 fps\nMinimum frame rate                       : 24.000 fps\nMaximum frame rate                       : 24.006 fps\nColor space                              : YUV\nChroma subsampling                       : 4:2:0\nBit depth                                : 8 bits\nScan type                                : Progressive\nBits/(Pixel*Frame)                       : 0.045\nStream size                              : 155 MiB (91%)\nWriting library                          : x264 core 120\n\nAudio\nID                                       : 2\nFormat                                   : AAC\nFormat/Info                              : Advanced Audio Codec\nFormat profile                           : LC\nCodec ID                                 : 40\nDuration                                 : 21mn 38s\nBit rate mode                            : Variable\nBit rate                                 : 96.0 Kbps\nMaximum bit rate                         : 178 Kbps\nChannel(s)                               : 2 channels\nChannel positions                        : Front: L R\nSampling rate                            : 48.0 KHz\nCompression mode                         : Lossy\nDelay relative to video                  : 83ms\nStream size                              : 14.9 MiB (9%)\n\n\n\n\n\n\n\n","torrent":{"xt":"urn:btih:12b54eb731d719c873b03ae0c4bf8d446331163c","amp;dn":"How+I+Met+Your+Mother+S08E24+720p+HDTV+x264+esubs+-+ViVeKRaNa","amp;tr":["udp%3A%2F%2Ftracker.openbittorrent.com%3A80","udp%3A%2F%2Fopen.demonii.com%3A1337","udp%3A%2F%2Ftracker.coppersurfer.tk%3A6969","udp%3A%2F%2Fexodus.desync.com%3A6969"],"infoHash":"12b54eb731d719c873b03ae0c4bf8d446331163c","infoHashBuffer":{"type":"Buffer","data":[18,181,78,183,49,215,25,200,115,176,58,224,196,191,141,68,99,49,22,60]},"announce":[],"urlList":[]}}